<mxfile host="app.diagrams.net" modified="2024-05-15T22:03:37.089Z" agent="Mozilla/5.0 (Windows NT 10.0; Win64; x64) AppleWebKit/537.36 (KHTML, like Gecko) Chrome/124.0.0.0 Safari/537.36" version="24.4.2" etag="oOVZKjDrc1snWVWFzRrD" type="github">
  <diagram name="Page-1" id="0oq_T9dsVdNxnvwL1sm3">
    <mxGraphModel>
      <root>
        <mxCell id="0" />
        <mxCell id="1" parent="0" />
      </root>
    </mxGraphModel>
  </diagram>
</mxfile>
